<svg xmlns="http://www.w3.org/2000/svg" width="1119" height="241" viewBox="0 0 1119 241"><path fill="#0033A0" fill-rule="evenodd" d="M379.9 48.8c16.6 0 29.6 6.9 38 16.3V51.3h34.9v124c0 36-22.7 65-65.8 65-32.4 0-56.1-16.8-66.3-36.7l30.9-17.3C358.2 199.6 370 208 387 208c18.9 0 30.9-14.8 30.9-31.4v-12c-8.4 9.9-21.9 16.8-38.5 16.8-27.1 0-61.5-21.4-61.5-66.3 0-45.1 33.2-66.3 62-66.3zM91.2.5c32.5 0 61.5 16.4 77.7 43.9l.5.9-31.1 19.9-.5-1c-10.2-19-25.9-28.7-46.5-28.7-31.8 0-55.8 24.1-55.8 56 0 31.1 24.1 55.5 55 55.5 21.3 0 39.1-11.7 48.7-32l.5-1 32.3 17.1-.5.9c-16.3 31.6-46.3 50.5-80.3 50.5-52.7 0-91-38.3-91-91 0-51.9 39.1-91 91-91zM243 48.8c36.7 0 66.1 29.6 66.1 66.3 0 36.7-29.3 66.3-66.1 66.3-36.7 0-66.1-29.6-66.1-66.3 0-36.7 29.3-66.3 66.1-66.3zm584 0c16.6 0 29.6 6.1 38 15.1V51.4h34.9v127.5H865v-14.3c-8.4 9.9-21.9 16.8-38.5 16.8-27.1 0-61.5-21.4-61.5-66.3 0-45.1 33.2-66.3 62-66.3zm-192.5 2.9v127.5h-34.9V51.7h34.9zm-97.8-2.8c30.1 0 48.2 19.4 48.2 52.3V179h-35.5v-73.2c0-17.1-7.9-27-23.5-27-13.3 0-24.2 9.2-24.2 30.6V179h-34.9V51.4h34.7v14.3c8.2-10.5 20.7-16.8 35.2-16.8zm447.2 0c30.1 0 48.2 19.4 48.2 52.3V179h-35.5v-73.2c0-17.1-7.9-27-23.5-27-13.3 0-24.2 9.2-24.2 30.6V179H914V51.4h34.7v14.3c8.2-10.5 20.7-16.8 35.2-16.8zm-222.2 2.5v31.4L694.6 148H763v30.9H647.7v-31.1l67.1-65.5h-66.1V51.4h113zm332.5-42.2v42.1h24v31.3h-24v41.192c.054 19.37 2.814 22.408 24 22.408v32.6h-5.1c-40.5 0-53.8-13.7-53.8-55.3V82.7h-21.7V51.3h21.7V9.2h34.9zM386.3 80.7c-19.4 0-34.2 14.5-34.2 34.2 0 19.7 14.8 34.4 34.2 34.4 18.8 0 32.6-15.6 32.6-34.4 0-18.9-13.8-34.2-32.6-34.2zm447.1 0c-19.4 0-34.2 14.5-34.2 34.2 0 19.7 14.8 34.4 34.2 34.4 18.8 0 32.6-15.6 32.6-34.4 0-18.9-13.8-34.2-32.6-34.2zM243 81.9c-18.1 0-31.9 15-31.9 33.2 0 18.1 13.8 33.2 31.9 33.2 17.9 0 32.1-15.1 32.1-33.2S260.8 81.9 243 81.9zM635 9.4v31.7h-34.9V9.4H635z"/></svg>