<svg xmlns="http://www.w3.org/2000/svg" width="469" height="500" viewBox="0 0 469 500"><g fill="none" fill-rule="evenodd"><text fill="#FFF" font-family="Nexa-Black-Italic, Nexa Black Italic" font-size="200" font-style="italic" font-weight="700" transform="translate(0 1)"><tspan x="0" y="329">90%</tspan></text><path stroke="#3D9ACE" d="M58.6 145.8c30.8 0 64.2-13.8 70.4-49l8.2-47.2C143.2 15 114.2 1 84 1 50 1 13.8 17.2 13.8 56.8c0 24.6 18 37.8 44.4 37.8 11.2 0 22.6-1.6 34-9.6l-2 12c-2.2 12-15.6 18-26.6 18-11.2 0-19.6-3.8-18.8-12.2H7c-5.8 32.4 20 43 51.6 43zm13.8-79.6c-11.6 0-18.8-5.2-18.8-14.4 0-11.8 11.6-18.4 24.8-18.4 13.4 0 20 6.8 20 14.2 0 9.8-8.8 18.6-26 18.6zm132.2 81c33.6 0 65.8-18.6 73.8-63.4l3.2-19c7.8-44-16.8-63.2-51.8-63.2-34.4 0-66.8 17.6-75 63.2L151.4 84c-8 45.8 20 63.2 53.2 63.2zm4.8-32.4c-14 0-22.8-9.4-19.2-30.8l3.4-19c3.8-21.2 16.6-30 30.4-30 14 0 22.6 9.4 19 30l-3.4 19c-3.6 21.4-16.2 30.8-30.2 30.8zM333 68.4c28.2 0 42.2-20 42.2-38.8 0-14.6-9-28.2-30.4-28.2-28 0-42.2 20.4-42.2 39 0 14.6 9 28 30.4 28zm6.4 75L455.8 3.6h-36l-117 139.8h36.6zm-2.2-99.6c-5.6 0-8-3.6-8-7.4 0-4.8 4-10.2 11.2-10.2 5.6 0 8 3.6 8 7.4 0 4.8-3.6 10.2-11.2 10.2zM414.8 145c28.2 0 42.2-20 42.2-38.8 0-14.6-8.8-28.2-30.4-28.2-27.8 0-42.2 20.4-42.2 39 0 14.6 9 28 30.4 28zm4.4-24.6c-5.6 0-8-3.6-8-7.4 0-4.8 3.8-10.2 11-10.2 5.8 0 8 3.6 8 7.4 0 4.8-3.4 10.2-11 10.2z"/><path stroke="#3996CA" d="M58.6 497.8c30.8 0 64.2-13.8 70.4-49l8.2-47.2c6-34.6-23-48.6-53.2-48.6-34 0-70.2 16.2-70.2 55.8 0 24.6 18 37.8 44.4 37.8 11.2 0 22.6-1.6 34-9.6l-2 12c-2.2 12-15.6 18-26.6 18-11.2 0-19.6-3.8-18.8-12.2H7c-5.8 32.4 20 43 51.6 43zm13.8-79.6c-11.6 0-18.8-5.2-18.8-14.4 0-11.8 11.6-18.4 24.8-18.4 13.4 0 20 6.8 20 14.2 0 9.8-8.8 18.6-26 18.6zm132.2 81c33.6 0 65.8-18.6 73.8-63.4l3.2-19c7.8-44-16.8-63.2-51.8-63.2-34.4 0-66.8 17.6-75 63.2l-3.4 19.2c-8 45.8 20 63.2 53.2 63.2zm4.8-32.4c-14 0-22.8-9.4-19.2-30.8l3.4-19c3.8-21.2 16.6-30 30.4-30 14 0 22.6 9.4 19 30l-3.4 19c-3.6 21.4-16.2 30.8-30.2 30.8zM333 420.4c28.2 0 42.2-20 42.2-38.8 0-14.6-9-28.2-30.4-28.2-28 0-42.2 20.4-42.2 39 0 14.6 9 28 30.4 28zm6.4 75l116.4-139.8h-36l-117 139.8h36.6zm-2.2-99.6c-5.6 0-8-3.6-8-7.4 0-4.8 4-10.2 11.2-10.2 5.6 0 8 3.6 8 7.4 0 4.8-3.6 10.2-11.2 10.2zM414.8 497c28.2 0 42.2-20 42.2-38.8 0-14.6-8.8-28.2-30.4-28.2-27.8 0-42.2 20.4-42.2 39 0 14.6 9 28 30.4 28zm4.4-24.6c-5.6 0-8-3.6-8-7.4 0-4.8 3.8-10.2 11-10.2 5.8 0 8 3.6 8 7.4 0 4.8-3.4 10.2-11 10.2z"/></g></svg>