<svg xmlns="http://www.w3.org/2000/svg" width="28" height="28" viewBox="0 0 28 28"><path d="M25.467 0H2.533A2.533 2.533 0 000 2.533v22.934A2.533 2.533 0 002.533 28h22.934A2.533 2.533 0 0028 25.467V2.533A2.533 2.533 0 0025.467 0zM8.97 23.008c0 .34-.25.617-.56.617H6.03c-.309 0-.56-.276-.56-.617V11.992c0-.34.251-.617.56-.617h2.38c.31 0 .56.276.56.617v11.016zM7.22 9.625a2.625 2.625 0 110-5.25 2.625 2.625 0 010 5.25zm16.625 13.44c0 .31-.26.56-.58.56h-2.88a.57.57 0 01-.58-.56v-5.09c0-.759.23-3.327-2.058-3.327-1.775 0-2.135 1.758-2.207 2.547v5.87c0 .31-.26.56-.58.56h-2.786a.57.57 0 01-.58-.56V12.117a.57.57 0 01.58-.559h2.786c.32 0 .58.25.58.56v.946c.658-.953 1.636-1.688 3.719-1.688 4.612 0 4.586 4.156 4.586 6.439v5.252z" fill="#0077B7" fill-rule="nonzero"/></svg>