<svg xmlns="http://www.w3.org/2000/svg" width="1119" height="241" viewBox="0 0 1119 241"><path fill="#FFFFFF" fill-rule="evenodd" d="M379.9,48.8 C396.5,48.8 409.5,55.7 417.9,65.1 L417.9,51.3 L452.8,51.3 L452.8,175.3 C452.8,211.3 430.1,240.3 387,240.3 C354.6,240.3 330.9,223.5 320.7,203.6 L351.6,186.3 C358.2,199.6 370,208 387,208 C405.9,208 417.9,193.2 417.9,176.6 L417.9,164.6 C409.5,174.5 396,181.4 379.4,181.4 C352.3,181.4 317.9,160 317.9,115.1 C317.9,70 351.1,48.8 379.9,48.8 Z M91.2,0.5 C123.7,0.5 152.7,16.9 168.9,44.4 L168.9,44.4 L169.4,45.3 L138.3,65.2 L137.8,64.2 C127.6,45.2 111.9,35.5 91.3,35.5 C59.5,35.5 35.5,59.6 35.5,91.5 C35.5,122.6 59.6,147 90.5,147 C111.8,147 129.6,135.3 139.2,115 L139.2,115 L139.7,114 L172,131.1 L171.5,132 C155.2,163.6 125.2,182.5 91.2,182.5 C38.5,182.5 0.2,144.2 0.2,91.5 C0.2,39.6 39.3,0.5 91.2,0.5 Z M243,48.8 C279.7,48.8 309.1,78.4 309.1,115.1 C309.1,151.8 279.8,181.4 243,181.4 C206.3,181.4 176.9,151.8 176.9,115.1 C176.9,78.4 206.2,48.8 243,48.8 Z M827,48.8 C843.6,48.8 856.6,54.9 865,63.9 L865,51.4 L899.9,51.4 L899.9,178.9 L865,178.9 L865,164.6 C856.6,174.5 843.1,181.4 826.5,181.4 C799.4,181.4 765,160 765,115.1 C765,70 798.2,48.8 827,48.8 Z M634.5,51.7 L634.5,179.2 L599.6,179.2 L599.6,51.7 L634.5,51.7 Z M536.7,48.9 C566.8,48.9 584.9,68.3 584.9,101.2 L584.9,179 L549.4,179 L549.4,105.8 C549.4,88.7 541.5,78.8 525.9,78.8 C512.6,78.8 501.7,88 501.7,109.4 L501.7,179 L466.8,179 L466.8,51.4 L501.5,51.4 L501.5,65.7 C509.7,55.2 522.2,48.9 536.7,48.9 Z M983.9,48.9 C1014,48.9 1032.1,68.3 1032.1,101.2 L1032.1,179 L996.6,179 L996.6,105.8 C996.6,88.7 988.7,78.8 973.1,78.8 C959.8,78.8 948.9,88 948.9,109.4 L948.9,179 L914,179 L914,51.4 L948.7,51.4 L948.7,65.7 C956.9,55.2 969.4,48.9 983.9,48.9 Z M761.7,51.4 L761.7,82.8 L694.6,148 L763,148 L763,178.9 L647.7,178.9 L647.7,147.8 L714.8,82.3 L648.7,82.3 L648.7,51.4 L761.7,51.4 Z M1094.2,9.2 L1094.2,51.3 L1118.2,51.3 L1118.2,82.6 L1094.2,82.6 L1094.2008,123.791974 C1094.25388,143.16169 1097.014,146.2 1118.2,146.2 L1118.2,146.2 L1118.2,178.8 L1113.1,178.8 C1072.6,178.8 1059.3,165.1 1059.3,123.5 L1059.3,123.5 L1059.3,82.7 L1037.6,82.7 L1037.6,51.3 L1059.3,51.3 L1059.3,9.2 L1094.2,9.2 Z M386.3,80.7 C366.9,80.7 352.1,95.2 352.1,114.9 C352.1,134.6 366.9,149.3 386.3,149.3 C405.1,149.3 418.9,133.7 418.9,114.9 C418.9,96 405.1,80.7 386.3,80.7 Z M833.4,80.7 C814,80.7 799.2,95.2 799.2,114.9 C799.2,134.6 814,149.3 833.4,149.3 C852.2,149.3 866,133.7 866,114.9 C866,96 852.2,80.7 833.4,80.7 Z M243,81.9 C224.9,81.9 211.1,96.9 211.1,115.1 C211.1,133.2 224.9,148.3 243,148.3 C260.9,148.3 275.1,133.2 275.1,115.1 C275.1,97 260.8,81.9 243,81.9 Z M635,9.4 L635,41.1 L600.1,41.1 L600.1,9.4 L635,9.4 Z"/></svg>