<svg xmlns="http://www.w3.org/2000/svg" width="28" height="28" viewBox="0 0 28 28">
    <g fill="none" fill-rule="evenodd">
        <g fill="#0077B7" fill-rule="nonzero">
            <g>
                <g>
                    <path d="M25.467 0H2.533C1.134 0 0 1.134 0 2.533v22.934C0 26.866 1.134 28 2.533 28h22.934C26.866 28 28 26.866 28 25.467V2.533C28 1.134 26.866 0 25.467 0zM8.97 23.008c0 .34-.25.617-.56.617H6.03c-.309 0-.56-.276-.56-.617V11.992c0-.34.251-.617.56-.617H8.41c.31 0 .56.276.56.617v11.016zM7.22 9.625C5.77 9.625 4.595 8.45 4.595 7S5.77 4.375 7.22 4.375 9.845 5.55 9.845 7 8.669 9.625 7.22 9.625zm16.625 13.44c0 .31-.26.56-.58.56h-2.88c-.32 0-.58-.25-.58-.56v-5.09c0-.759.23-3.327-2.058-3.327-1.775 0-2.135 1.758-2.207 2.547v5.87c0 .31-.26.56-.58.56h-2.786c-.32 0-.58-.25-.58-.56V12.117c0-.309.26-.559.58-.559h2.786c.32 0 .58.25.58.56v.946c.658-.953 1.636-1.688 3.719-1.688 4.612 0 4.586 4.156 4.586 6.439v5.252z" transform="translate(-308 -11349) translate(166 10829) translate(142 520)"/>
                </g>
            </g>
        </g>
    </g>
</svg>
