<svg xmlns="http://www.w3.org/2000/svg" width="28" height="28" viewBox="0 0 28 28">
    <g fill="none" fill-rule="evenodd">
        <g fill-rule="nonzero">
            <g>
                <g>
                    <path fill="#50ABF1" d="M0 0H27.983V27.983H0z" transform="translate(-344 -11349) translate(166 10829) translate(178 520)"/>
                    <path fill="#FFF" d="M4.368 20.37c1.742 1.113 3.81 1.758 6.026 1.758 6.226 0 11.273-5.084 11.273-11.354 0-.156-.004-.312-.01-.467.226-.178 1.618-1.302 1.96-2.025 0 0-1.131.473-2.238.585h-.007s.002 0 .006-.004c.102-.068 1.528-1.046 1.72-2.21 0 0-.8.43-1.92.806-.185.062-.379.123-.58.18-.721-.777-1.747-1.261-2.887-1.261-2.185 0-3.955 1.782-3.955 3.982 0 .31.035.612.102.902-.305-.013-4.955-.275-8.118-4.134 0 0-1.89 2.6 1.126 5.273 0 0-.917-.037-1.708-.513 0 0-.29 3.15 3.126 3.954 0 0-.672.257-1.745.074 0 0 .6 2.544 3.636 2.782 0 0-2.4 2.184-5.808 1.672z" transform="translate(-344 -11349) translate(166 10829) translate(178 520)"/>
                </g>
            </g>
        </g>
    </g>
</svg>
